<?xml version="1.0" encoding="utf-8"?>
<!-- Generator: Adobe Illustrator 24.3.0, SVG Export Plug-In . SVG Version: 6.00 Build 0)  -->
<svg version="1.1" id="Layer_1" xmlns="http://www.w3.org/2000/svg" xmlns:xlink="http://www.w3.org/1999/xlink" x="0px" y="0px"
	 viewBox="0 0 1356 367" style="enable-background:new 0 0 1356 367;" xml:space="preserve">
<style type="text/css">
	.st0{fill:none;stroke:#000000;stroke-width:14;stroke-miterlimit:10;}
	.st1{fill:#FF0000;}
</style>
<image style="display:none;overflow:visible;" width="673" height="185" xlink:href="Ikonok/Hazteto"  transform="matrix(1 0 0 1 327.9688 121.3455)">
</image>
<polyline class="st0" points="4,243.9 335.3,15.8 380.8,41.9 380.8,8.2 441.4,7.1 441.4,77.6 782,243.9 1356,243.9 "/>
<g>
	<path class="st1" d="M286.2,109.3c5.2-14.3,11.4-25.5,18.7-33.5c7.3-8,14.8-12,22.7-12c8,0,12.8,3.9,14.3,11.8
		c1.5,7.8-0.3,18.8-5.4,32.9c-3.7,10.3-7.7,18.7-12,25.2c-4.3,6.6-8.9,11.7-13.8,15.3c-4.9,3.7-10,5.5-15.4,5.5
		c-5.4,0-9.4-1.6-11.8-4.7c-2.4-3.2-3.5-8.1-3.2-15C280.5,128.1,282.5,119.5,286.2,109.3z M301.1,109.4c-3.2,8.9-4.6,15.2-4.2,19.1
		c0.4,3.9,2.2,5.8,5.3,5.8c3.2,0,6.4-1.9,9.5-5.7c3.1-3.8,6.5-10.6,10-20.4c3-8.3,4.3-14.3,3.8-18.1c-0.5-3.8-2.2-5.7-5.4-5.7
		c-3,0-6.1,1.9-9.3,5.8C307.6,94,304.3,100.4,301.1,109.4z"/>
	<path class="st1" d="M363.4,153.1h-12.5l3.7-10.3c-3.4,4.2-6.4,7.2-8.9,9c-2.5,1.8-5.2,2.7-8,2.7c-3.7,0-5.8-2-6.5-6
		c-0.6-4,0.5-10.2,3.6-18.5l14.7-40.5h13.5l-12.7,35c-1.4,4-2.1,6.8-1.9,8.5c0.2,1.7,1,2.5,2.5,2.5c1.6,0,3.3-1.1,5.1-3.4
		c1.8-2.2,3.8-6.2,5.9-12L373,89.5h13.4L363.4,153.1z"/>
	<path class="st1" d="M393.7,89.5h12.5l-3.8,10.4c2.8-4.5,5.2-7.6,7.1-9.3c1.9-1.7,3.8-2.5,5.7-2.5c2,0,3.7,1.1,5.3,3.4l-10.4,17.4
		c-1.1-1.2-2.2-1.8-3.1-1.8c-1.8,0-3.6,1.3-5.5,3.9c-2.7,3.7-5.9,10.7-9.6,20.8l-7.7,21.3h-13.5L393.7,89.5z"/>
	<path class="st1" d="M141.6,162.3H187l-7.9,21.7h-15.2L140,250H125l24-66.1h-15.2L141.6,162.3z"/>
	<path class="st1" d="M204.1,224.3h-26.9c-1.2,3.9-1.6,6.8-1.4,8.7c0.3,2.8,1.5,4.1,3.6,4.1c1.3,0,2.8-0.6,4.4-1.8
		c1-0.8,2.3-2.1,3.8-4l12.4,2.2c-4.3,6.4-8.4,11-12.3,13.7c-3.9,2.8-8.5,4.2-13.8,4.2c-4.6,0-7.8-1.2-9.6-3.6
		c-1.8-2.4-2.6-6.1-2.5-11.3c0.1-5.2,1.5-11.2,4-18.2c3.6-9.9,8.3-18,14-24.1c5.7-6.1,11.7-9.2,17.8-9.2c5,0,8.5,1.4,10.3,4.1
		s2.7,6.7,2.3,12c-0.4,5.2-2.1,12-5.1,20.4L204.1,224.3z M194.8,212.6c1.4-4.7,2-8.1,1.6-10.1c-0.4-2-1.5-3.1-3.4-3.1
		c-2.1,0-4.4,1.5-6.8,4.6c-1.5,1.9-3.1,4.8-4.6,8.6H194.8z"/>
	<path class="st1" d="M227.8,207l-11.9-2.5c2-4.1,3.8-7.3,5.6-9.6c1.8-2.3,3.8-4.4,6.1-6.1c1.7-1.2,3.7-2.2,6.1-2.9
		c2.4-0.7,4.8-1,7.3-1c4,0,7.1,0.4,9.2,1.2c2.1,0.8,3.5,2.5,4.2,5.1c0.5,1.8,0.5,4.3-0.1,7.6c-0.5,3.3-1.3,6.4-2.4,9.4l-10.2,28.1
		c-1.1,3-1.8,5.3-2.2,7c-0.4,1.7-0.7,3.9-1,6.5h-12.6c0.1-1.6,0.2-2.9,0.4-3.7c0.2-0.9,0.5-2.2,1-4c-2.9,3.1-5.4,5.3-7.6,6.6
		c-3,1.8-6.1,2.6-9.2,2.6c-4.2,0-6.7-1.8-7.6-5.3c-0.9-3.5-0.4-7.8,1.5-13c1.8-4.8,4-8.8,6.7-11.9c2.7-3.1,6.4-5.4,11.1-6.9
		c5.7-1.8,9.4-3.1,11.2-3.9c1.8-0.7,3.7-1.7,5.8-2.9c1.1-3,1.5-5.1,1.3-6.3c-0.2-1.2-1.2-1.8-2.9-1.8c-2.2,0-4.1,0.6-5.6,1.9
		C230.7,202.4,229.3,204.3,227.8,207z M234.8,219.9c-2.3,1.2-4.6,2.3-6.9,3.2c-3.2,1.3-5.4,2.6-6.6,3.9c-1.2,1.3-2.1,2.8-2.7,4.5
		c-0.7,1.9-0.9,3.5-0.6,4.7c0.3,1.2,1.2,1.8,2.6,1.8c1.5,0,3.1-0.7,4.9-2c1.8-1.3,3.3-2.9,4.5-4.8c1.2-1.9,2.4-4.4,3.5-7.4
		L234.8,219.9z"/>
	<path class="st1" d="M267.2,186.5h12.5l-3.4,9.3c3.2-3.9,6-6.6,8.4-8.3c2.4-1.6,4.9-2.5,7.5-2.5c2.8,0,4.7,0.9,5.6,2.7
		c1,1.8,1.3,4.5,1.1,8c3.6-4.1,6.5-7,8.8-8.5c2.3-1.5,4.7-2.2,7.2-2.2c3.7,0,5.9,2,6.6,6.1s-0.6,10.4-3.7,19L303.4,250H290
		l13.1-36.2c1-2.9,1.5-5,1.4-6.4c-0.1-2.2-0.8-3.3-2.2-3.3c-1.6,0-3.2,1-4.9,3.1c-1.7,2.1-3.4,5.4-5.1,10L280.5,250h-13.4l12.7-35
		c1-2.8,1.6-4.7,1.8-5.7c0.3-1.6,0.3-2.9-0.1-3.9c-0.4-1-1-1.5-1.9-1.5c-1.5,0-3.2,1.1-4.9,3.2c-1.8,2.1-3.5,5.6-5.3,10.4L257.6,250
		h-13.4L267.2,186.5z"/>
	<path class="st1" d="M359.7,233.6h-24.4l7.3-20.1l43.5-52.8h11.7l-19.5,53.9h6.1l-6.9,18.9h-6.1l-5.9,16.4h-11.7L359.7,233.6z
		 M366.6,214.7l10-27.6l-22.9,27.6H366.6z"/>
	<path class="st1" d="M425.4,162.3h16.6l-1,29.6l20.5-29.6h16.5l-37.2,51L427.3,250h-14.9l13.3-36.7L425.4,162.3z"/>
	<path class="st1" d="M453.1,218.4c3.5-9.7,8.2-17.7,14.1-24c5.9-6.3,11.9-9.4,18-9.4c7,0,10.9,3.7,11.8,11.1
		c0.7,5.9-0.5,13.3-3.7,22c-3.5,9.8-8.2,17.8-14.1,24c-5.8,6.2-11.9,9.4-18.2,9.4c-5.6,0-9.2-2.6-10.8-7.8
		C448.4,237.2,449.3,228.8,453.1,218.4z M466.5,218.4c-2.1,5.7-2.9,9.9-2.7,12.6c0.3,2.7,1.4,4.1,3.3,4.1c1.9,0,4-1.3,6.2-4
		c2.2-2.7,4.4-7,6.5-12.9c2-5.5,2.9-9.6,2.6-12.3c-0.3-2.7-1.3-4-3.2-4c-2,0-4.1,1.4-6.3,4.1C470.7,208.6,468.6,212.8,466.5,218.4z"
		/>
	<path class="st1" d="M524.1,250h-12.5l3.7-10.3c-3.4,4.2-6.4,7.2-8.9,9s-5.2,2.7-8,2.7c-3.7,0-5.8-2-6.5-6s0.5-10.2,3.6-18.5
		l14.7-40.5h13.5l-12.7,35c-1.4,4-2.1,6.8-1.9,8.5c0.2,1.7,1,2.5,2.5,2.5c1.6,0,3.3-1.1,5.1-3.4c1.8-2.2,3.8-6.2,5.9-12l11.1-30.6
		h13.4L524.1,250z"/>
</g>
<g>
	<path class="st1" d="M574.7,277.5h64.4L633,299h-2.1c0.1-1.1,0.1-2.1,0.1-3c0-4.1-1.2-7.3-3.6-9.5s-6.4-3.5-12.2-3.9l-17.8,60.2
		c-1,3.3-1.5,5.8-1.5,7.4c0,1.5,0.6,2.7,1.8,3.6c1.2,0.9,3.7,1.4,7.4,1.4l-0.5,2.2H565l0.7-2.2c4.1,0,7-0.8,8.9-2.3
		c1.9-1.5,3.5-4.9,5.1-10.2l17.8-60.2c-6.1,0.2-11.3,1.5-15.4,4c-4.1,2.5-7.9,6.6-11.3,12.4h-2.3L574.7,277.5z"/>
	<path class="st1" d="M637,335.3c-0.4,2.6-0.5,4.7-0.5,6.3c0,2.9,0.9,5.3,2.6,7.1c1.7,1.8,4,2.7,6.9,2.7c2.8,0,5.5-0.7,8.3-2
		c2.8-1.3,6-3.7,9.7-7l1.8,1.6c-4.5,5.5-8.9,9.4-13.2,11.7c-4.3,2.3-9,3.5-14.2,3.5c-6.6,0-11.1-1.6-13.6-4.7
		c-2.5-3.1-3.8-6.8-3.8-10.9c0-6.5,1.9-12.9,5.6-19.4c3.8-6.4,8.9-11.6,15.3-15.5c6.5-3.9,13-5.8,19.5-5.8c3.3,0,5.8,0.8,7.5,2.4
		c1.7,1.6,2.5,3.6,2.5,6c0,2.9-0.8,5.7-2.5,8.4c-2.3,3.7-5.2,6.7-8.6,8.9c-3.5,2.3-7.3,4-11.6,5.2C645.7,334.4,641.8,335,637,335.3z
		 M637.5,332.3c3.5-0.5,6.1-1.2,8.1-2.1c1.9-0.9,3.8-2.3,5.6-4.2c1.8-1.9,3.4-4.4,4.8-7.4c1.3-3,2-5.8,2-8.3c0-1.1-0.3-2-0.9-2.6
		c-0.6-0.6-1.4-0.9-2.3-0.9c-1.9,0-4,1.3-6.4,4C644,315.4,640.4,322.6,637.5,332.3z"/>
	<path class="st1" d="M717.1,343.3l1.8,1.6c-3.8,4.6-7.6,7.9-11.3,10c-4.9,2.8-10,4.2-15.3,4.2c-3.5,0-6.7-0.8-9.4-2.3
		c-2.7-1.5-4.8-3.6-6-6.4c-1.3-2.7-1.9-5.5-1.9-8.4c0-6.5,1.7-12.8,5.2-19s8.1-11.2,13.9-14.8c5.7-3.6,11.4-5.5,16.9-5.5
		c4.4,0,7.8,1,10,3c2.2,2,3.4,4.4,3.4,7.3c0,2.6-0.8,4.9-2.5,6.7c-1.7,1.8-3.6,2.8-5.7,2.8c-1.8,0-3.3-0.6-4.5-1.8
		c-1.2-1.2-1.8-2.6-1.8-4.2c0-2.1,1.1-4,3.2-5.5c1.5-1.1,2.2-2.1,2.2-2.9c0-0.7-0.3-1.3-0.9-1.7c-0.8-0.6-1.8-0.9-3.1-0.9
		c-3.3,0-6.4,1.3-9.3,4c-3.9,3.5-6.8,8-8.9,13.5c-2,5.4-3.1,10.6-3.1,15.5c0,3.9,1,6.9,3.1,9.2c2.1,2.3,4.6,3.5,7.4,3.5
		c2.5,0,5.2-0.6,8.2-1.9C711.7,347.9,714.5,345.9,717.1,343.3z"/>
	<path class="st1" d="M765.1,275.6l-15.3,53.2c5.3-7.8,9.2-13.1,11.6-15.9c3.6-4,6.7-6.7,9.2-8.1c2.6-1.4,5-2.1,7.4-2.1
		c2,0,3.7,0.8,5.2,2.3c1.4,1.5,2.2,3.5,2.2,6c0,2.1-0.5,4.8-1.4,8l-7.5,25.1c-0.7,2.2-1,3.7-1,4.4c0,0.4,0.1,0.7,0.4,1
		c0.3,0.3,0.6,0.4,0.9,0.4c0.5,0,0.9-0.2,1.4-0.6c1.3-1,2.6-2.6,4-4.7c0.4-0.6,0.9-1.4,1.7-2.5l2.3,1.3c-3.4,5.6-6.6,9.4-9.6,11.5
		c-3,2.1-5.9,3.1-8.6,3.1c-2.4,0-4.3-0.6-5.7-1.9c-1.4-1.3-2.1-2.8-2.1-4.7c0-1.7,0.5-4.2,1.4-7.4l7.3-25.1c0.5-1.7,0.7-3,0.7-3.8
		c0-0.4-0.2-0.8-0.5-1.1c-0.3-0.3-0.7-0.5-1.1-0.5c-1.4,0-3.4,1.2-5.8,3.5c-5.1,4.8-10.2,12.4-15.3,22.8l-5.3,17.5h-14.6l19.4-66.7
		c0.8-2.8,1.2-4.9,1.2-6.1c0-1-0.4-1.7-1.2-2.3c-1-0.7-2.6-1.1-4.7-0.9l0.4-2.4l19.7-3.5H765.1z"/>
	<path class="st1" d="M824.8,302.8l-7.3,25.3c4.9-7.4,8.6-12.4,11-15.2c3.6-3.9,6.7-6.6,9.3-8c2.6-1.4,5-2.1,7.3-2.1
		c2,0,3.8,0.8,5.3,2.3c1.5,1.5,2.2,3.5,2.2,5.9c0,2.2-0.5,4.9-1.4,8l-7.6,25.2c-0.6,2.2-0.9,3.6-0.9,4.3c0,0.4,0.2,0.7,0.4,1.1
		c0.3,0.3,0.6,0.5,0.9,0.5c0.4,0,0.8-0.2,1.2-0.5c1.4-1.1,2.8-2.8,4.2-4.8c0.4-0.6,0.9-1.4,1.7-2.5l2.2,1.4
		c-5.8,9.7-11.9,14.6-18.2,14.6c-2.4,0-4.4-0.6-5.7-1.9c-1.4-1.3-2.1-2.8-2.1-4.7c0-1.7,0.5-4.1,1.4-7.4l7.4-25.2
		c0.5-1.7,0.8-2.9,0.8-3.7c0-0.4-0.2-0.8-0.5-1.1c-0.4-0.3-0.8-0.5-1.2-0.5c-1.5,0-3.3,1-5.4,3.1c-5.4,5.2-10.7,12.9-15.8,23.2
		l-4.8,17.5h-15l11-37.9c1.1-3.7,1.6-6.4,1.6-8c0-0.7-0.2-1.2-0.5-1.7c-0.3-0.5-0.8-0.8-1.5-1.1c-0.7-0.3-2-0.4-4-0.4l0.6-2.2
		l19.9-3.5H824.8z"/>
	<path class="st1" d="M899.5,302.8c3.1,0,6,0.7,8.8,2.2c2.7,1.4,4.8,3.4,6.2,6c1.4,2.6,2.1,5.4,2.1,8.5c0,6.4-1.8,12.7-5.3,19.1
		c-3.6,6.4-8.3,11.4-14.1,15.1s-11.7,5.5-17.6,5.5c-5.3,0-9.5-1.6-12.4-4.8c-2.9-3.2-4.4-7.1-4.4-11.7c0-5.5,1.1-10.6,3.3-15.4
		c2.2-4.8,5-8.9,8.3-12.5c3.4-3.6,7.2-6.5,11.6-8.7C890.3,303.9,894.8,302.8,899.5,302.8z M897.1,305.9c-2.1,0-3.8,0.6-5.2,1.8
		c-2.8,2.5-5.9,8.3-9.3,17.4c-3.5,9.1-5.2,17.3-5.2,24.6c0,1.8,0.6,3.3,1.7,4.5c1.1,1.2,2.4,1.8,3.9,1.8c1.5,0,2.9-0.5,4.1-1.4
		c1.7-1.4,3.9-4.6,6.4-9.5c2.5-4.9,4.6-10.4,6.2-16.3c1.6-6,2.4-11.4,2.4-16.4c0-2-0.5-3.6-1.5-4.8
		C899.5,306.5,898.4,305.9,897.1,305.9z"/>
	<path class="st1" d="M924.8,324.8h34.3l-3.7,12.3H921L924.8,324.8z"/>
	<path class="st1" d="M995.1,318.4l-7.1,24.3c-1,3.4-1.5,5.9-1.5,7.6c0,1.5,0.6,2.7,1.8,3.6c1.2,0.9,3.8,1.4,7.6,1.5l-0.8,2.2h-38.5
		l0.7-2.2c3.9,0,6.7-0.7,8.5-2.2c1.8-1.5,3.4-4.8,4.9-10l14.9-51.3c0.8-2.9,1.2-5.1,1.2-6.8c0-1.6-0.5-2.8-1.5-3.6
		c-1-0.8-3.4-1.4-7.1-1.7l0.6-2.2h33.2c9.5,0,16.1,1.7,20,5c3.9,3.3,5.8,7.6,5.8,12.7c0,5.5-2.2,10.4-6.7,14.8
		c-2.8,2.8-7.8,5.1-15.1,7.1l7.2,24.3c1.9,6.5,3.6,10.4,5,11.7c1.4,1.3,3.8,2.1,7.2,2.2v2.2h-24.9l-11.3-39.1l-1.9,0.1
		C996.7,318.5,996,318.5,995.1,318.4z M996,314.9c1.4,0.1,2.5,0.1,3.5,0.1c5.7,0,10.5-2,14.2-5.9c3.7-3.9,5.5-9.1,5.5-15.5
		c0-3.8-1-6.6-3-8.6c-2-2-4.6-3-7.8-3c-0.8,0-1.7,0-2.8,0.1L996,314.9z"/>
	<path class="st1" d="M1059.9,335.3c-0.4,2.6-0.5,4.7-0.5,6.3c0,2.9,0.9,5.3,2.6,7.1c1.7,1.8,4,2.7,6.9,2.7c2.8,0,5.5-0.7,8.3-2
		c2.8-1.3,6-3.7,9.7-7l1.8,1.6c-4.5,5.5-8.9,9.4-13.2,11.7c-4.3,2.3-9,3.5-14.2,3.5c-6.6,0-11.1-1.6-13.6-4.7s-3.8-6.8-3.8-10.9
		c0-6.5,1.9-12.9,5.6-19.4c3.8-6.4,8.9-11.6,15.3-15.5c6.5-3.9,13-5.8,19.5-5.8c3.3,0,5.8,0.8,7.5,2.4c1.7,1.6,2.5,3.6,2.5,6
		c0,2.9-0.8,5.7-2.5,8.4c-2.3,3.7-5.2,6.7-8.6,8.9c-3.5,2.3-7.3,4-11.6,5.2C1068.6,334.4,1064.8,335,1059.9,335.3z M1060.5,332.3
		c3.5-0.5,6.1-1.2,8.1-2.1c1.9-0.9,3.8-2.3,5.6-4.2c1.8-1.9,3.4-4.4,4.8-7.4c1.3-3,2-5.8,2-8.3c0-1.1-0.3-2-0.9-2.6
		c-0.6-0.6-1.4-0.9-2.3-0.9c-1.9,0-4,1.3-6.4,4C1066.9,315.4,1063.3,322.6,1060.5,332.3z"/>
	<path class="st1" d="M1126.8,302.8l-7.6,25.4c5.1-7.8,8.8-13,11.1-15.8c3.4-4,6.2-6.6,8.5-7.8c2.2-1.2,4.5-1.8,6.7-1.8
		c2.6,0,4.4,0.8,5.5,2.3c1.1,1.5,1.7,3.2,1.7,5.1c0,1.9-0.5,4.8-1.6,8.5l-2.7,9.5c5.1-7.9,8.8-13.1,11-15.7c3.5-4,6.5-6.7,9-8.1
		c1.8-1,3.7-1.5,5.7-1.5c2.1,0,3.8,0.7,5.2,2.1c1.4,1.4,2.1,3.2,2.1,5.5c0,2.5-0.6,5.8-1.8,9.8l-6.5,22c-1,3.3-1.5,5.4-1.5,6.3
		c0,0.3,0.1,0.6,0.4,0.9c0.3,0.3,0.5,0.4,0.9,0.4c0.4,0,0.8-0.1,1.1-0.4c1.4-1.1,2.9-2.8,4.5-5c0.4-0.5,0.9-1.2,1.6-2.2l2,1.3
		c-2.7,5.1-5.7,8.8-8.9,11.2c-3.2,2.4-6.2,3.5-9,3.5c-2.4,0-4.3-0.7-5.8-2c-1.5-1.3-2.2-2.9-2.2-4.6c0-1.7,0.5-4.3,1.5-7.7l6.7-23
		c0.9-3.2,1.4-5.2,1.4-6c0-0.3-0.1-0.5-0.4-0.8c-0.3-0.3-0.6-0.4-0.8-0.4c-0.5,0-1,0.1-1.5,0.4c-0.7,0.4-1.9,1.4-3.5,3.1
		c-1.6,1.7-3.8,4.6-6.7,8.9c-2.9,4.3-4.9,7.6-6,10c-1.1,2.4-2.2,5.5-3.3,9.3l-3.6,12.2H1125l11-38.5c0.6-2.1,0.9-3.5,0.9-4.3
		c0-0.3-0.1-0.5-0.4-0.8c-0.3-0.2-0.5-0.4-0.8-0.4c-1.5,0-3.8,1.9-6.9,5.7c-4.8,5.9-9.2,13-13.1,21.3l-4.8,16.9h-15l11.1-37.9
		c1.1-3.7,1.7-6.4,1.7-8c0-0.6-0.2-1.2-0.5-1.6s-0.8-0.8-1.5-1.1c-0.7-0.3-2.1-0.4-4.1-0.4l0.6-2.2l20.1-3.5H1126.8z"/>
	<path class="st1" d="M1228.4,302.8c3.1,0,6,0.7,8.8,2.2c2.7,1.4,4.8,3.4,6.2,6c1.4,2.6,2.1,5.4,2.1,8.5c0,6.4-1.8,12.7-5.3,19.1
		c-3.6,6.4-8.3,11.4-14.1,15.1s-11.7,5.5-17.6,5.5c-5.3,0-9.5-1.6-12.4-4.8c-2.9-3.2-4.4-7.1-4.4-11.7c0-5.5,1.1-10.6,3.3-15.4
		c2.2-4.8,5-8.9,8.3-12.5c3.4-3.6,7.2-6.5,11.6-8.7C1219.2,303.9,1223.7,302.8,1228.4,302.8z M1226,305.9c-2.1,0-3.8,0.6-5.2,1.8
		c-2.8,2.5-5.9,8.3-9.3,17.4c-3.5,9.1-5.2,17.3-5.2,24.6c0,1.8,0.6,3.3,1.7,4.5c1.1,1.2,2.4,1.8,3.9,1.8c1.5,0,2.9-0.5,4.1-1.4
		c1.7-1.4,3.9-4.6,6.4-9.5c2.5-4.9,4.6-10.4,6.2-16.3c1.6-6,2.4-11.4,2.4-16.4c0-2-0.5-3.6-1.5-4.8
		C1228.4,306.5,1227.3,305.9,1226,305.9z"/>
	<path class="st1" d="M1281.4,302.8l-7.3,25.3c4.9-7.4,8.6-12.4,11-15.2c3.6-3.9,6.7-6.6,9.3-8c2.6-1.4,5-2.1,7.3-2.1
		c2,0,3.8,0.8,5.3,2.3c1.5,1.5,2.2,3.5,2.2,5.9c0,2.2-0.5,4.9-1.4,8l-7.6,25.2c-0.6,2.2-0.9,3.6-0.9,4.3c0,0.4,0.2,0.7,0.4,1.1
		c0.3,0.3,0.6,0.5,0.9,0.5c0.4,0,0.8-0.2,1.2-0.5c1.4-1.1,2.8-2.8,4.2-4.8c0.4-0.6,0.9-1.4,1.7-2.5l2.2,1.4
		c-5.8,9.7-11.9,14.6-18.2,14.6c-2.4,0-4.3-0.6-5.7-1.9c-1.4-1.3-2.1-2.8-2.1-4.7c0-1.7,0.5-4.1,1.4-7.4l7.4-25.2
		c0.5-1.7,0.8-2.9,0.8-3.7c0-0.4-0.2-0.8-0.5-1.1c-0.4-0.3-0.8-0.5-1.2-0.5c-1.5,0-3.3,1-5.4,3.1c-5.4,5.2-10.7,12.9-15.8,23.2
		l-4.8,17.5h-15l11-37.9c1.1-3.7,1.6-6.4,1.6-8c0-0.7-0.2-1.2-0.5-1.7c-0.3-0.5-0.8-0.8-1.5-1.1c-0.7-0.3-2-0.4-4-0.4l0.6-2.2
		l19.9-3.5H1281.4z"/>
	<path class="st1" d="M1351,288.4l-4.7,16h7.7l-2.1,6.8h-7.6l-9.9,34.2c-0.6,2.1-0.9,3.7-0.9,4.8c0,0.5,0.2,1,0.5,1.3
		c0.4,0.4,0.7,0.6,1.2,0.6c0.7,0,1.4-0.3,2.1-0.8c1.8-1.4,3.9-3.8,6.3-7.2l2.1,1.3c-2.7,4.7-5.7,8.2-9,10.4s-6.5,3.3-9.6,3.3
		c-2.7,0-4.8-0.7-6.2-2c-1.5-1.4-2.2-3.1-2.2-5.2c0-2.3,0.5-5.2,1.5-8.8l9.3-31.9h-8l1.2-4.4c5-1.8,9.3-4,12.7-6.5
		c3.5-2.5,7.6-6.5,12.5-12H1351z"/>
</g>
<g>
	<path d="M16.1,338.3H32l2.5-8.5c0.5-1.7,0.7-2.9,0.7-3.9c0-0.4-0.1-0.8-0.3-1.1c-0.2-0.3-0.5-0.5-1-0.7c-0.4-0.2-1.3-0.2-2.6-0.2
		l0.3-0.9h13.9l-0.3,0.9c-1.2,0-2,0.1-2.6,0.4c-0.8,0.4-1.4,0.8-1.8,1.4c-0.6,0.8-1.1,2.2-1.7,4.2l-6.1,20.8c-0.5,1.7-0.8,3-0.8,3.7
		c0,0.6,0.2,1.1,0.7,1.5c0.4,0.3,1.5,0.6,3.2,0.7l-0.3,0.9H22.4l0.4-0.9c1.3,0,2.2-0.2,2.6-0.4c0.7-0.3,1.2-0.7,1.5-1.2
		c0.4-0.7,1-2.1,1.6-4.3l3.1-10.5h-16l-3.1,10.5c-0.5,1.7-0.7,2.9-0.7,3.7c0,0.6,0.2,1.1,0.7,1.5c0.4,0.3,1.5,0.6,3.2,0.7l-0.2,0.9
		H1.9l0.3-0.9c1.3,0,2.2-0.2,2.7-0.4c0.7-0.3,1.2-0.7,1.5-1.2c0.4-0.7,1-2.1,1.6-4.3l6.1-20.8c0.5-1.7,0.7-3,0.7-3.9
		c0-0.4-0.1-0.8-0.3-1.1c-0.2-0.3-0.5-0.5-1-0.7s-1.3-0.2-2.6-0.2l0.3-0.9h13.6l-0.3,0.9c-1.1,0-2,0.1-2.5,0.4
		c-0.8,0.3-1.4,0.8-1.8,1.3c-0.5,0.7-1.1,2.2-1.7,4.2L16.1,338.3z"/>
	<path d="M47,347.8c-0.1,0.8-0.2,1.5-0.2,2.1c0,1.5,0.5,2.8,1.6,3.8c1.1,1.1,2.4,1.6,3.9,1.6c1.2,0,2.4-0.2,3.5-0.7s2.8-1.6,5-3.3
		l0.5,0.7c-4,4-7.8,6-11.5,6c-2.5,0-4.3-0.8-5.6-2.3c-1.3-1.6-1.9-3.3-1.9-5.2c0-2.5,0.8-5.1,2.3-7.7c1.6-2.6,3.5-4.7,5.9-6.2
		c2.4-1.5,4.8-2.2,7.3-2.2c1.8,0,3.1,0.4,4,1.1s1.3,1.6,1.3,2.6c0,1.4-0.6,2.8-1.7,4c-1.5,1.7-3.6,3-6.5,4.1
		C53.1,346.9,50.4,347.4,47,347.8z M47.2,346.6c2.5-0.3,4.5-0.8,6.1-1.5c2.1-0.9,3.6-2,4.7-3.3c1-1.3,1.6-2.5,1.6-3.7
		c0-0.7-0.2-1.3-0.7-1.7c-0.4-0.4-1.1-0.7-1.9-0.7c-1.7,0-3.6,0.9-5.5,2.8C49.5,340.3,48.1,343,47.2,346.6z"/>
	<path d="M66.6,335.8l8.8-1.4l-3.7,12.3c3-5.1,5.7-8.6,8.1-10.6c1.4-1.2,2.5-1.7,3.4-1.7c0.6,0,1,0.2,1.3,0.5
		c0.3,0.3,0.5,0.8,0.5,1.4c0,1.1-0.3,2.2-0.9,3.2c-0.4,0.8-1,1.1-1.8,1.1c-0.4,0-0.7-0.1-1-0.4c-0.3-0.3-0.5-0.6-0.5-1.2
		c0-0.3-0.1-0.5-0.2-0.6c-0.1-0.1-0.3-0.2-0.5-0.2c-0.3,0-0.6,0.1-0.8,0.2c-0.4,0.2-1.1,0.9-2,2c-1.4,1.7-2.9,3.8-4.6,6.5
		c-0.7,1.1-1.3,2.4-1.8,3.8c-0.7,1.9-1.1,3.1-1.2,3.5l-0.8,3.2H65l4.7-15.8c0.5-1.8,0.8-3.1,0.8-3.9c0-0.3-0.1-0.6-0.4-0.8
		c-0.3-0.3-0.8-0.4-1.3-0.4c-0.4,0-1,0.1-2,0.2L66.6,335.8z"/>
	<path d="M88.5,335h16.1v0.6l-17.6,18.3h7.4c1.8,0,2.9-0.1,3.4-0.2c0.5-0.1,0.9-0.4,1.3-0.9c0.4-0.4,0.8-1.2,1.3-2.4h0.9l-2.2,6.9
		H82.7v-0.7l17.6-18.3H93c-1.5,0-2.5,0-2.8,0.1c-0.5,0.1-0.9,0.4-1.4,0.8c-0.5,0.4-0.9,1.1-1.4,2.1h-1L88.5,335z"/>
	<path d="M119.8,321.3l-8.7,30.2c-0.4,1.5-0.6,2.4-0.6,2.8c0,0.3,0.1,0.5,0.2,0.6c0.2,0.2,0.4,0.3,0.6,0.3c0.3,0,0.7-0.1,1-0.4
		c0.9-0.7,1.8-1.8,2.8-3.2l0.8,0.8c-1.6,2.3-3.1,3.9-4.4,4.7c-1,0.6-1.9,1-2.8,1c-0.6,0-1.2-0.2-1.6-0.7c-0.4-0.4-0.6-0.9-0.6-1.5
		c0-0.6,0.3-1.9,0.8-3.8l6.9-23.8c0.6-1.9,0.8-3.1,0.8-3.4c0-0.4-0.2-0.7-0.5-1s-0.8-0.4-1.5-0.4c-0.4,0-1,0.1-1.8,0.2v-0.9
		L119.8,321.3z"/>
	<path d="M130.8,334.4l-5,17.8c-0.3,1.2-0.5,1.9-0.5,2.2c0,0.3,0.1,0.5,0.2,0.7c0.2,0.2,0.4,0.3,0.6,0.3c0.3,0,0.6-0.1,0.9-0.4
		c1-0.8,1.9-1.8,2.9-3.3l0.9,0.6c-1.2,1.8-2.5,3.2-4.1,4.4c-1.2,0.9-2.3,1.3-3.3,1.3c-0.7,0-1.3-0.2-1.7-0.6
		c-0.4-0.4-0.7-0.9-0.7-1.6c0-0.6,0.2-1.7,0.6-3.1l3.3-11.4c0.5-1.9,0.8-3,0.8-3.5c0-0.4-0.1-0.7-0.4-0.9c-0.3-0.2-0.6-0.4-1.1-0.4
		c-0.4,0-1.1,0.1-2.3,0.3v-1L130.8,334.4z M130.5,324.3c0.7,0,1.3,0.2,1.8,0.7c0.5,0.5,0.7,1.1,0.7,1.8c0,0.7-0.2,1.3-0.7,1.8
		c-0.5,0.5-1.1,0.7-1.8,0.7c-0.7,0-1.3-0.2-1.8-0.7s-0.7-1.1-0.7-1.8c0-0.7,0.2-1.3,0.7-1.8C129.2,324.6,129.8,324.3,130.5,324.3z"
		/>
	<path d="M153.4,351.9c-1.8,2.1-3.5,3.7-5.3,4.7c-1.8,1-3.7,1.5-5.7,1.5c-2.4,0-4.3-0.7-5.6-2c-1.3-1.4-2-3.2-2-5.5
		c0-2.6,0.7-5.1,2.2-7.6c1.4-2.5,3.4-4.5,5.8-6.1c2.4-1.6,4.8-2.3,7.2-2.3c1.8,0,3.2,0.4,4.1,1.2s1.4,1.7,1.4,2.8c0,1-0.3,1.9-1,2.7
		c-0.5,0.6-1.1,0.9-1.8,0.9c-0.5,0-1-0.2-1.3-0.5c-0.3-0.3-0.5-0.8-0.5-1.3c0-0.3,0.1-0.6,0.2-0.9c0.1-0.3,0.4-0.6,0.8-1
		c0.4-0.4,0.6-0.7,0.7-0.8c0.1-0.2,0.1-0.3,0.1-0.5c0-0.4-0.2-0.7-0.5-0.9c-0.5-0.3-1.2-0.5-2.1-0.5c-1.7,0-3.3,0.6-4.9,1.8
		c-1.6,1.2-3,2.8-4.2,5c-1.4,2.6-2.1,5.2-2.1,7.8c0,1.7,0.5,3.1,1.5,4.1c1,1,2.3,1.5,4,1.5c1.3,0,2.6-0.3,3.9-1s2.7-1.8,4.3-3.5
		L153.4,351.9z"/>
	<path d="M171.6,321.3l-7.1,24.7c3.1-4.6,5.5-7.7,7.2-9.2c1.7-1.5,3.4-2.3,5-2.3c0.8,0,1.5,0.3,2,0.8c0.5,0.6,0.8,1.3,0.8,2.2
		c0,1.1-0.2,2.5-0.7,4.1l-3.1,10.6c-0.4,1.3-0.6,2-0.6,2.1c0,0.2,0.1,0.4,0.2,0.6c0.1,0.2,0.3,0.2,0.5,0.2c0.2,0,0.5-0.1,0.8-0.3
		c1-0.7,1.9-1.8,2.9-3.1l0.8,0.5c-0.6,0.9-1.4,1.9-2.4,3s-1.9,1.8-2.6,2.2c-0.7,0.4-1.4,0.6-2,0.6c-0.6,0-1.1-0.2-1.5-0.6
		c-0.4-0.4-0.6-0.9-0.6-1.5c0-0.7,0.3-2.1,0.9-4.2l2.9-10.2c0.4-1.3,0.6-2.3,0.6-3c0-0.3-0.1-0.6-0.3-0.8c-0.2-0.2-0.5-0.3-0.8-0.3
		c-0.5,0-1.1,0.2-1.7,0.6c-1.2,0.7-2.5,2-4,4c-0.4,0.5-1.8,2.6-4.1,6.3c-0.7,1.2-1.3,2.5-1.8,3.9l-1.6,5.2h-3.8l8.4-29.1l0.9-3.1
		c0-0.4-0.2-0.8-0.5-1.2c-0.4-0.3-0.8-0.5-1.3-0.5c-0.3,0-0.8,0.1-1.4,0.2l-0.5,0.1v-1L171.6,321.3z"/>
	<path d="M202.4,358.2l3-28.7c0.1-1.1,0.2-1.9,0.2-2.5c0-1-0.3-1.7-0.8-2.2s-1.6-0.8-3-0.8l0.3-0.9h12.9l-0.3,0.9
		c-1.7,0-2.9,0.3-3.5,0.9c-0.6,0.6-1.1,2.2-1.3,4.7l-1.9,18.6l13.1-20.2c0-0.3,0-0.6,0-0.9c0-0.9-0.3-1.7-0.8-2.2
		c-0.6-0.5-1.8-0.8-3.6-0.9l0.2-0.9h13.9l-0.3,0.9c-1.6,0-2.7,0.2-3.3,0.4c-0.4,0.2-0.7,0.5-1,0.9c-0.3,0.4-0.5,1.1-0.7,2.1
		c-0.1,0.3-0.3,2.3-0.6,5.9c-0.4,3.6-0.9,8.6-1.6,14.9l10.9-16.6c1.2-1.8,1.9-3.1,2.2-3.8c0.3-0.7,0.5-1.3,0.5-1.9
		c0-0.5-0.2-0.9-0.6-1.3c-0.4-0.4-1.1-0.6-2.1-0.7l0.2-0.9h10.2l-0.3,0.9c-0.9,0.1-1.7,0.3-2.4,0.7c-0.7,0.4-1.5,1.1-2.5,2.1
		c-0.5,0.6-1.7,2.2-3.4,4.8l-17.3,26.7h-0.9l2.8-26.7l-17.3,26.7H202.4z"/>
	<path d="M247.8,334.4l-5,17.8c-0.3,1.2-0.5,1.9-0.5,2.2c0,0.3,0.1,0.5,0.2,0.7c0.2,0.2,0.4,0.3,0.6,0.3c0.3,0,0.6-0.1,0.9-0.4
		c1-0.8,1.9-1.8,2.9-3.3l0.9,0.6c-1.2,1.8-2.5,3.2-4.1,4.4c-1.2,0.9-2.3,1.3-3.3,1.3c-0.7,0-1.3-0.2-1.7-0.6
		c-0.4-0.4-0.7-0.9-0.7-1.6c0-0.6,0.2-1.7,0.6-3.1l3.3-11.4c0.5-1.9,0.8-3,0.8-3.5c0-0.4-0.1-0.7-0.4-0.9c-0.3-0.2-0.6-0.4-1.1-0.4
		c-0.4,0-1.1,0.1-2.3,0.3v-1L247.8,334.4z M247.5,324.3c0.7,0,1.3,0.2,1.8,0.7c0.5,0.5,0.7,1.1,0.7,1.8c0,0.7-0.2,1.3-0.7,1.8
		c-0.5,0.5-1.1,0.7-1.8,0.7c-0.7,0-1.3-0.2-1.8-0.7s-0.7-1.1-0.7-1.8c0-0.7,0.2-1.3,0.7-1.8C246.2,324.6,246.8,324.3,247.5,324.3z"
		/>
	<path d="M265.7,321.3l-8.7,30.2c-0.4,1.5-0.6,2.4-0.6,2.8c0,0.3,0.1,0.5,0.2,0.6c0.2,0.2,0.4,0.3,0.6,0.3c0.3,0,0.7-0.1,1-0.4
		c0.9-0.7,1.8-1.8,2.8-3.2l0.8,0.8c-1.6,2.3-3.1,3.9-4.4,4.7c-1,0.6-1.9,1-2.8,1c-0.6,0-1.2-0.2-1.6-0.7c-0.4-0.4-0.6-0.9-0.6-1.5
		c0-0.6,0.3-1.9,0.8-3.8l6.9-23.8c0.6-1.9,0.8-3.1,0.8-3.4c0-0.4-0.2-0.7-0.5-1s-0.8-0.4-1.5-0.4c-0.4,0-1,0.1-1.8,0.2v-0.9
		L265.7,321.3z"/>
	<path d="M280.2,321.3l-8.7,30.2c-0.4,1.5-0.6,2.4-0.6,2.8c0,0.3,0.1,0.5,0.2,0.6c0.2,0.2,0.4,0.3,0.6,0.3c0.3,0,0.7-0.1,1-0.4
		c0.9-0.7,1.8-1.8,2.8-3.2l0.8,0.8c-1.6,2.3-3.1,3.9-4.4,4.7c-1,0.6-1.9,1-2.8,1c-0.6,0-1.2-0.2-1.6-0.7c-0.4-0.4-0.6-0.9-0.6-1.5
		c0-0.6,0.3-1.9,0.8-3.8l6.9-23.8c0.6-1.9,0.8-3.1,0.8-3.4c0-0.4-0.2-0.7-0.5-1s-0.8-0.4-1.5-0.4c-0.4,0-1,0.1-1.8,0.2v-0.9
		L280.2,321.3z"/>
	<path d="M294.1,321.3l-7.2,25l2.9-2.5c3.2-2.7,5.2-4.7,6.2-5.9c0.3-0.4,0.5-0.7,0.5-1c0-0.2-0.1-0.3-0.2-0.4
		c-0.1-0.1-0.3-0.2-0.6-0.3c-0.3-0.1-0.8-0.1-1.6-0.1h-0.9l0.3-1h11.1l-0.3,1c-1.3,0.1-2.4,0.3-3.3,0.6s-1.8,0.8-2.7,1.5
		c-1.7,1.3-2.8,2.2-3.4,2.6l-2.2,1.9c0.4,1.2,0.8,2.9,1.4,5.1c0.9,3.6,1.5,5.8,1.9,6.5s0.7,1,1,1c0.3,0,0.6-0.1,1-0.4
		c0.9-0.6,1.8-1.7,2.8-3.1l0.9,0.6c-1.8,2.3-3.3,3.8-4.2,4.6c-1,0.7-1.9,1.1-2.7,1.1c-0.7,0-1.3-0.3-1.7-0.8
		c-0.7-1-1.8-4.9-3.4-11.8l-3.5,3l-2.6,9h-4l8.4-29l0.7-2.5c0.1-0.4,0.1-0.8,0.1-1.1c0-0.4-0.2-0.7-0.5-1c-0.3-0.3-0.8-0.4-1.4-0.4
		c-0.4,0-1,0.1-1.9,0.3v-0.9L294.1,321.3z"/>
	<path d="M326.3,342.4c0,2.5-0.7,5.1-2,7.5c-1.3,2.5-3.2,4.5-5.6,5.9c-2.4,1.5-4.7,2.2-7,2.2c-2.3,0-4.2-0.7-5.7-2.2
		c-1.5-1.5-2.2-3.4-2.2-5.8c0-2.5,0.7-5,2.1-7.5c1.4-2.5,3.3-4.5,5.7-5.9c2.4-1.5,4.7-2.2,6.9-2.2s4.1,0.7,5.5,2.2
		C325.6,338.1,326.3,340,326.3,342.4z M322.1,340.6c0-1.6-0.4-2.8-1.2-3.6c-0.8-0.8-1.8-1.3-3-1.3c-2.5,0-4.8,1.8-6.9,5.3
		c-2.1,3.6-3.1,7.1-3.1,10.6c0,1.6,0.4,2.8,1.2,3.7s1.8,1.3,3.1,1.3c2.4,0,4.6-1.8,6.7-5.3C321.1,347.9,322.1,344.3,322.1,340.6z"/>
	<path d="M339.5,334.4l-3.3,11.5c1.5-2.7,2.7-4.7,3.8-6.1c1.6-2.1,3.2-3.6,4.7-4.6c0.9-0.5,1.8-0.8,2.8-0.8c0.8,0,1.5,0.3,2.1,0.8
		c0.6,0.5,0.8,1.2,0.8,2.1c0,0.8-0.2,1.9-0.6,3.3l-1.8,6.5c2.8-5.2,5.4-8.8,7.8-10.9c1.4-1.2,2.7-1.7,4.1-1.7c0.8,0,1.4,0.3,1.9,0.8
		c0.5,0.5,0.7,1.4,0.7,2.5c0,1-0.2,2-0.5,3.1l-2.8,9.9c-0.6,2.2-0.9,3.3-0.9,3.6s0.1,0.4,0.2,0.6c0.1,0.1,0.2,0.2,0.4,0.2
		s0.5-0.2,0.9-0.5c1-0.7,1.9-1.7,2.7-2.9l0.8,0.5c-0.4,0.7-1.2,1.6-2.2,2.8s-2,2-2.8,2.4c-0.8,0.4-1.5,0.6-2.1,0.6
		c-0.6,0-1.1-0.2-1.5-0.6c-0.4-0.4-0.6-0.9-0.6-1.5c0-0.8,0.3-2.4,1-4.9l2.3-8.2c0.5-1.9,0.8-2.9,0.8-3.1c0.1-0.3,0.1-0.6,0.1-0.9
		c0-0.4-0.1-0.8-0.3-1c-0.2-0.2-0.4-0.4-0.7-0.4c-0.7,0-1.5,0.4-2.3,1.1c-2.3,2.2-4.5,5.2-6.6,9c-1.3,2.6-2.6,5.8-3.8,9.8h-3.8
		l4.3-15.4c0.5-1.7,0.7-2.8,0.7-3.3c0-0.5-0.1-0.8-0.3-1c-0.2-0.2-0.4-0.3-0.7-0.3c-0.6,0-1.2,0.2-1.8,0.6c-1,0.7-2.3,2.1-3.9,4.2
		c-1.6,2.2-2.8,4.2-3.7,6.2c-0.4,0.9-1.4,3.9-3,9h-3.8l4.7-16.5l0.6-2.1c0.1-0.3,0.2-0.6,0.2-0.7c0-0.4-0.2-0.7-0.5-1
		c-0.3-0.3-0.8-0.4-1.3-0.4c-0.2,0-0.8,0.1-1.8,0.3l-0.2-0.9L339.5,334.4z"/>
	<path d="M377.1,334.4l-3.3,11.5c1.5-2.7,2.7-4.7,3.8-6.1c1.6-2.1,3.2-3.6,4.7-4.6c0.9-0.5,1.8-0.8,2.8-0.8c0.8,0,1.5,0.3,2.1,0.8
		c0.6,0.5,0.8,1.2,0.8,2.1c0,0.8-0.2,1.9-0.6,3.3l-1.8,6.5c2.8-5.2,5.4-8.8,7.8-10.9c1.4-1.2,2.7-1.7,4.1-1.7c0.8,0,1.4,0.3,1.9,0.8
		c0.5,0.5,0.7,1.4,0.7,2.5c0,1-0.2,2-0.5,3.1l-2.8,9.9c-0.6,2.2-0.9,3.3-0.9,3.6s0.1,0.4,0.2,0.6c0.1,0.1,0.2,0.2,0.4,0.2
		s0.5-0.2,0.9-0.5c1-0.7,1.9-1.7,2.7-2.9l0.8,0.5c-0.4,0.7-1.2,1.6-2.2,2.8s-2,2-2.8,2.4c-0.8,0.4-1.5,0.6-2.1,0.6
		c-0.6,0-1.1-0.2-1.5-0.6c-0.4-0.4-0.6-0.9-0.6-1.5c0-0.8,0.3-2.4,1-4.9l2.3-8.2c0.5-1.9,0.8-2.9,0.8-3.1c0.1-0.3,0.1-0.6,0.1-0.9
		c0-0.4-0.1-0.8-0.3-1c-0.2-0.2-0.4-0.4-0.7-0.4c-0.7,0-1.5,0.4-2.3,1.1c-2.3,2.2-4.5,5.2-6.6,9c-1.3,2.6-2.6,5.8-3.8,9.8h-3.8
		l4.3-15.4c0.5-1.7,0.7-2.8,0.7-3.3c0-0.5-0.1-0.8-0.3-1c-0.2-0.2-0.4-0.3-0.7-0.3c-0.6,0-1.2,0.2-1.8,0.6c-1,0.7-2.3,2.1-3.9,4.2
		c-1.6,2.2-2.8,4.2-3.7,6.2c-0.4,0.9-1.4,3.9-3,9h-3.8l4.7-16.5l0.6-2.1c0.1-0.3,0.2-0.6,0.2-0.7c0-0.4-0.2-0.7-0.5-1
		c-0.3-0.3-0.8-0.4-1.3-0.4c-0.2,0-0.8,0.1-1.8,0.3l-0.2-0.9L377.1,334.4z"/>
	<path d="M409.6,347.8c-0.1,0.8-0.2,1.5-0.2,2.1c0,1.5,0.5,2.8,1.6,3.8c1.1,1.1,2.4,1.6,3.9,1.6c1.2,0,2.4-0.2,3.5-0.7
		s2.8-1.6,5-3.3l0.5,0.7c-4,4-7.8,6-11.5,6c-2.5,0-4.3-0.8-5.6-2.3c-1.3-1.6-1.9-3.3-1.9-5.2c0-2.5,0.8-5.1,2.3-7.7
		c1.6-2.6,3.5-4.7,5.9-6.2c2.4-1.5,4.8-2.2,7.3-2.2c1.8,0,3.1,0.4,4,1.1s1.3,1.6,1.3,2.6c0,1.4-0.6,2.8-1.7,4
		c-1.5,1.7-3.6,3-6.5,4.1C415.7,346.9,413,347.4,409.6,347.8z M409.8,346.6c2.5-0.3,4.5-0.8,6.1-1.5c2.1-0.9,3.6-2,4.7-3.3
		c1-1.3,1.6-2.5,1.6-3.7c0-0.7-0.2-1.3-0.7-1.7c-0.4-0.4-1.1-0.7-1.9-0.7c-1.7,0-3.6,0.9-5.5,2.8C412.1,340.3,410.7,343,409.8,346.6
		z"/>
	<path d="M438,334.4l-3.4,11.6c3.2-4.7,5.6-7.8,7.3-9.3c1.7-1.5,3.3-2.2,4.9-2.2c0.8,0,1.5,0.3,2.1,0.8c0.5,0.6,0.8,1.3,0.8,2.2
		c0,1-0.2,2.4-0.7,4.1l-3.1,10.7c-0.4,1.2-0.5,2-0.5,2.3c0,0.2,0.1,0.4,0.2,0.6c0.1,0.2,0.3,0.2,0.4,0.2c0.2,0,0.4-0.1,0.7-0.3
		c0.9-0.7,1.9-1.8,2.9-3.3l0.8,0.5c-1.6,2.3-3.1,3.9-4.5,4.8c-1,0.7-1.9,1-2.6,1c-0.6,0-1.1-0.2-1.5-0.6c-0.4-0.4-0.6-0.9-0.6-1.5
		c0-0.8,0.3-2.2,0.9-4.2l2.9-10.2c0.4-1.3,0.6-2.3,0.6-3c0-0.3-0.1-0.6-0.3-0.8c-0.2-0.2-0.5-0.3-0.8-0.3c-0.5,0-1,0.2-1.7,0.6
		c-1.3,0.8-2.6,2-3.9,3.8s-2.8,4-4.3,6.7c-0.8,1.4-1.5,3-2,4.7l-1.3,4.2h-3.8l4.6-15.9c0.5-1.9,0.8-3.1,0.8-3.5c0-0.4-0.1-0.7-0.4-1
		c-0.3-0.3-0.7-0.4-1.1-0.4c-0.2,0-0.6,0-1.1,0.1l-1,0.2l-0.2-0.9L438,334.4z"/>
	<path d="M480.5,321.3l-5,17.5c1.6-1.7,3-2.9,4.3-3.5c1.2-0.6,2.5-0.9,3.8-0.9c1.9,0,3.4,0.6,4.6,1.9c1.2,1.2,1.8,2.9,1.8,5
		c0,2.7-0.8,5.4-2.3,8.1c-1.6,2.7-3.5,4.8-5.9,6.3c-2.4,1.5-4.7,2.3-7,2.3c-2.6,0-5.2-1-7.9-2.9l7.7-26.6c0.6-2,0.9-3.3,0.9-3.6
		c0-0.4-0.1-0.8-0.4-1c-0.4-0.3-1-0.5-1.7-0.5c-0.4,0-0.9,0.1-1.6,0.2v-1L480.5,321.3z M470.7,355.4c1.7,0.9,3.2,1.4,4.5,1.4
		c1.5,0,3-0.5,4.6-1.6c1.6-1.1,3-2.9,4.2-5.5s1.8-5.2,1.8-7.8c0-1.6-0.4-2.8-1.2-3.7s-1.7-1.3-2.7-1.3c-1.6,0-3.1,0.6-4.6,1.9
		s-2.6,3-3.2,5.3L470.7,355.4z"/>
	<path d="M497.7,347.8c-0.1,0.8-0.2,1.5-0.2,2.1c0,1.5,0.5,2.8,1.6,3.8c1.1,1.1,2.4,1.6,3.9,1.6c1.2,0,2.4-0.2,3.5-0.7
		s2.8-1.6,5-3.3l0.5,0.7c-4,4-7.8,6-11.5,6c-2.5,0-4.3-0.8-5.6-2.3c-1.3-1.6-1.9-3.3-1.9-5.2c0-2.5,0.8-5.1,2.3-7.7
		c1.6-2.6,3.5-4.7,5.9-6.2c2.4-1.5,4.8-2.2,7.3-2.2c1.8,0,3.1,0.4,4,1.1c0.9,0.7,1.3,1.6,1.3,2.6c0,1.4-0.6,2.8-1.7,4
		c-1.5,1.7-3.6,3-6.5,4.1C503.8,346.9,501.1,347.4,497.7,347.8z M497.9,346.6c2.5-0.3,4.5-0.8,6.1-1.5c2.1-0.9,3.6-2,4.7-3.3
		c1-1.3,1.6-2.5,1.6-3.7c0-0.7-0.2-1.3-0.7-1.7c-0.4-0.4-1.1-0.7-1.9-0.7c-1.7,0-3.6,0.9-5.5,2.8C500.2,340.3,498.8,343,497.9,346.6
		z"/>
	<path d="M526.5,334.4l-5,17.8c-0.3,1.2-0.5,1.9-0.5,2.2c0,0.3,0.1,0.5,0.2,0.7c0.2,0.2,0.4,0.3,0.6,0.3c0.3,0,0.6-0.1,0.9-0.4
		c1-0.8,1.9-1.8,2.9-3.3l0.9,0.6c-1.2,1.8-2.5,3.2-4.1,4.4c-1.2,0.9-2.3,1.3-3.3,1.3c-0.7,0-1.3-0.2-1.7-0.6
		c-0.4-0.4-0.7-0.9-0.7-1.6c0-0.6,0.2-1.7,0.6-3.1l3.3-11.4c0.5-1.9,0.8-3,0.8-3.5c0-0.4-0.1-0.7-0.4-0.9c-0.3-0.2-0.6-0.4-1.1-0.4
		c-0.4,0-1.1,0.1-2.3,0.3v-1L526.5,334.4z M526.2,324.3c0.7,0,1.3,0.2,1.8,0.7c0.5,0.5,0.7,1.1,0.7,1.8c0,0.7-0.2,1.3-0.7,1.8
		c-0.5,0.5-1.1,0.7-1.8,0.7c-0.7,0-1.3-0.2-1.8-0.7s-0.7-1.1-0.7-1.8c0-0.7,0.2-1.3,0.7-1.8C524.9,324.6,525.5,324.3,526.2,324.3z"
		/>
	<path d="M534.7,352.8c0.7,0,1.3,0.2,1.8,0.7c0.5,0.5,0.7,1.1,0.7,1.8c0,0.7-0.2,1.3-0.7,1.8c-0.5,0.5-1.1,0.7-1.8,0.7
		c-0.7,0-1.3-0.2-1.8-0.7c-0.5-0.5-0.7-1.1-0.7-1.8c0-0.7,0.2-1.3,0.7-1.8C533.4,353,534,352.8,534.7,352.8z M540.1,334.4
		c0.7,0,1.3,0.2,1.8,0.7c0.5,0.5,0.8,1.1,0.8,1.8s-0.3,1.3-0.8,1.8c-0.5,0.5-1.1,0.8-1.8,0.8c-0.7,0-1.3-0.3-1.8-0.8
		s-0.8-1.1-0.8-1.8s0.3-1.3,0.8-1.8C538.8,334.6,539.4,334.4,540.1,334.4z"/>
</g>
</svg>
